<svg height="512" viewBox="0 0 64 64" width="512" xmlns="http://www.w3.org/2000/svg"><g fill="#78b9eb"><path d="m35.97 34.17-.97 5.83h-6l-.97-5.83a9.91 9.91 0 0 0 7.94 0z"/><path d="m49 45v16h-17l3.87-8.22v-.01l2.13-1.77-.47-1.74 2.47-5.26-2-3 3-2v-6.79a9.99 9.99 0 0 1 8 9.79z"/><path d="m15 45v-3a9.99 9.99 0 0 1 8-9.79v6.79l3 2-2 3 2.47 5.26-.47 1.74 2.13 1.77v.01l3.87 8.22h-17z"/><path d="m22 13h-2v-2a8 8 0 0 1 14.05-5.23 6.007 6.007 0 0 1 8.95 5.23v2z"/></g><path d="m41.073 31.207a10.929 10.929 0 0 0 1.927-6.207v-2h1a3 3 0 0 0 3-3v-2a3 3 0 0 0 -3-3h-1v-1h1v-2h-25v2h2v1h-1a3 3 0 0 0 -3 3v2a3 3 0 0 0 3 3h1v2a10.929 10.929 0 0 0 1.927 6.207 11.045 11.045 0 0 0 -8.927 10.793v19a1 1 0 0 0 1 1h34a1 1 0 0 0 1-1v-19a11.045 11.045 0 0 0 -8.927-10.793zm-3.905 10.348 1.687 2.53-1.078 2.3-1.755-6.433.851-5.1a11.022 11.022 0 0 0 2.627-1.828c.167.01.335.014.5.032v5.409l-2.555 1.7a1 1 0 0 0 -.277 1.39zm-5.168 13.145-4.866-4.055 2.63-9.645h4.472l2.63 9.643zm1.043 1.734-1.043 2.216-1.043-2.218.4.336a1 1 0 0 0 1.28 0zm-6.488-16.266-2.555-1.703v-5.409c.165-.018.333-.022.5-.032a11.022 11.022 0 0 0 2.627 1.823l.851 5.1-1.755 6.433-1.078-2.3 1.687-2.53a1 1 0 0 0 -.277-1.382zm7.598-1.168h-4.306l-.559-3.352a10.623 10.623 0 0 0 5.424 0zm9.847-22a1 1 0 0 1 1 1v2a1 1 0 0 1 -1 1h-1v-4zm-3-3v11a9 9 0 0 1 -18 0v-11zm-21 7a1 1 0 0 1 -1-1v-2a1 1 0 0 1 1-1h1v4zm-4 25h3v-2h-3v-2a9.038 9.038 0 0 1 6-8.473v5.473a1 1 0 0 0 .445.832l2.168 1.445-1.445 2.168a1 1 0 0 0 -.073.98l2.316 4.933-.376 1.379a1 1 0 0 0 .325 1.031l1.963 1.632 3.1 6.6h-14.423zm17.575 14 3.1-6.6 1.963-1.636a1 1 0 0 0 .325-1.031l-.376-1.379 2.316-4.933a1 1 0 0 0 -.073-.98l-1.445-2.168 2.168-1.445a1 1 0 0 0 .447-.828v-5.473a9.038 9.038 0 0 1 6 8.473v2h-3v2h3v14z" fill="#006df0"/><path d="m28 22a1 1 0 0 0 1-1v-2a1 1 0 0 0 -2 0v2a1 1 0 0 0 1 1z" fill="#006df0"/><path d="m36 22a1 1 0 0 0 1-1v-2a1 1 0 0 0 -2 0v2a1 1 0 0 0 1 1z" fill="#006df0"/><path d="m28 4a6.964 6.964 0 0 1 5.291 2.421 1 1 0 0 0 1.25.22 5.008 5.008 0 0 1 7.459 4.359h2a7.009 7.009 0 0 0 -9.726-6.452 9 9 0 0 0 -15.274 6.452h2a7.008 7.008 0 0 1 7-7z" fill="#006df0"/></svg>