<svg height="512" viewBox="0 0 64 64" width="512" xmlns="http://www.w3.org/2000/svg"><path d="m49 27a16.968 16.968 0 0 1 -8.38 14.65l-4.06-6.9a9 9 0 1 0 -9.12 0l-4.06 6.9a17 17 0 1 1 25.62-14.65z" fill="#78b9eb"/><path d="m32 54-15 7h-5l7.84-13.32 3.54-6.03 4.06-6.9 2.53-4.31 2.03-3.44 2.03 3.44 2.53 4.31 4.06 6.9 3.54 6.03 7.84 13.32h-5z" fill="#78b9eb"/><g fill="#006df0"><path d="m45.515 48a25 25 0 1 0 -27.03 0l-7.347 12.493a1 1 0 0 0 .862 1.507h5a1 1 0 0 0 .423-.094l14.577-6.806 14.577 6.8a1 1 0 0 0 .423.1h5a1 1 0 0 0 .862-1.507zm-36.515-21a23 23 0 1 1 35.5 19.28l-2.53-4.3a18 18 0 1 0 -19.942 0l-2.53 4.3a23.08 23.08 0 0 1 -10.498-19.28zm20.717 1.909a3 3 0 1 1 4.566 0l-1.421-2.416a1.04 1.04 0 0 0 -1.724 0zm2.283-6.909a4.986 4.986 0 0 0 -3.338 8.7l-1.544 2.625a8 8 0 1 1 9.764 0l-1.544-2.625a4.986 4.986 0 0 0 -3.338-8.7zm10 5a10 10 0 1 0 -15.9 8.051l-3.06 5.2a16 16 0 1 1 17.912 0l-3.06-5.2a10 10 0 0 0 4.108-8.051zm5.222 33-14.222-6.637v-4.363h-2v4.363l-14.222 6.637h-3.029l18.251-31.027 18.251 31.027z"/><path d="m31 33h2v2h-2z"/><path d="m31 37h2v3h-2z"/><path d="m31 42h2v4h-2z"/></g></svg>