<svg height="512" viewBox="0 0 64 64" width="512" xmlns="http://www.w3.org/2000/svg"><path d="m26 48h12v6h-12z" fill="#78b9eb"/><path d="m44 27.52v.48h-7v-12l2.81 2.41a12 12 0 0 1 4.19 9.11z" fill="#78b9eb"/><path d="m38 54v1a6.009 6.009 0 0 1 -6 6 6 6 0 0 1 -6-6v-1z" fill="#78b9eb"/><path d="m37 16v10h-10v-12.8a8.065 8.065 0 0 1 .08-1.2h9.84a8.065 8.065 0 0 1 .08 1.2zm-3 2a2 2 0 1 0 -2 2 2.006 2.006 0 0 0 2-2z" fill="#78b9eb"/><path d="m34 30 1 3h-6l1-3z" fill="#78b9eb"/><path d="m32 36a2.006 2.006 0 0 1 2 2c0 1.1-2 4-2 4s-2-2.9-2-4a2.006 2.006 0 0 1 2-2z" fill="#78b9eb"/><path d="m27 26v2h-7v-.03a11.989 11.989 0 0 1 3.51-8.48l3.49-3.49z" fill="#78b9eb"/><g fill="#006df0"><path d="m54 27h4v2h-4z"/><path d="m14.03 9.029h2v4h-2z" transform="matrix(.707 -.707 .707 .707 -3.397 13.859)"/><path d="m6 27h4v2h-4z"/><path d="m13.03 43.971h4v2h-4z" transform="matrix(.707 -.707 .707 .707 -27.397 23.799)"/><path d="m47.971 42.971h2v4h-2z" transform="matrix(.707 -.707 .707 .707 -17.456 47.805)"/><path d="m32 15a3 3 0 1 0 3 3 3 3 0 0 0 -3-3zm0 4a1 1 0 1 1 1-1 1 1 0 0 1 -1 1z"/><path d="m32 35a3 3 0 0 0 -3 3c0 1.278 1.522 3.62 2.177 4.568a1 1 0 0 0 1.646 0c.655-.948 2.177-3.29 2.177-4.568a3 3 0 0 0 -3-3zm0 5.146a7.443 7.443 0 0 1 -1-2.146 1 1 0 0 1 2 0 7.433 7.433 0 0 1 -1 2.146z"/><path d="m39 30h2v4h-2z"/><path d="m42 30h2v2h-2z"/><path d="m23 30h2v4h-2z"/><path d="m20 30h2v2h-2z"/><path d="m52 28a19.863 19.863 0 0 0 -14.992-19.346 10.977 10.977 0 0 0 -1.057-1.842l-3.137-4.393a1.038 1.038 0 0 0 -1.628 0l-3.137 4.393a11.062 11.062 0 0 0 -1.049 1.831 19.987 19.987 0 0 0 -2 38.084v.273h-2v2h2v6a7.008 7.008 0 0 0 7 7 7.009 7.009 0 0 0 7-7v-6h2v-2h-2v-.273a19.978 19.978 0 0 0 13-18.727zm-22.323-20.026 2.323-3.253 2.324 3.253a8.944 8.944 0 0 1 1.376 3.026h-7.4a8.927 8.927 0 0 1 1.377-3.026zm-1.677 5.231c0-.069.014-.136.016-.205h7.968c0 .069.016.136.016.205v11.795h-8zm0 13.795h8v2h-8zm5.613 5h-3.226l.334-1h2.558zm1.917 26.536a4.93 4.93 0 0 1 -3.53 1.464 5.006 5.006 0 0 1 -5-5h10a4.935 4.935 0 0 1 -1.47 3.536zm1.47-5.536h-10v-4h10zm-10-6v-.98a1 1 0 0 0 -.684-.95 17.988 17.988 0 0 1 -.077-34.119 10.986 10.986 0 0 0 -.239 2.254v2.381l-3.192 3.192a12.93 12.93 0 0 0 -3.808 9.222 1 1 0 0 0 1 1h6v1a1 1 0 0 0 1 1h1.612l-.561 1.684a1 1 0 0 0 .949 1.316h6a1 1 0 0 0 .949-1.316l-.561-1.684h1.612a1 1 0 0 0 1-1v-1h6a1 1 0 0 0 1-1v-.48a12.984 12.984 0 0 0 -4.54-9.871l-2.46-2.109v-2.335a10.986 10.986 0 0 0 -.239-2.254 17.992 17.992 0 0 1 -.077 34.12 1 1 0 0 0 -.684.949v.98zm-1-28.586v8.586h-4.958a10.917 10.917 0 0 1 3.18-6.808zm12 8.586v-8.826l1.159.994a10.983 10.983 0 0 1 3.829 7.832z"/><path d="m46.97 10.029h4v2h-4z" transform="matrix(.707 -.707 .707 .707 6.544 37.858)"/></g></svg>